<svg width="198" height="198" viewBox="0 0 198 198" fill="none" xmlns="http://www.w3.org/2000/svg">
<path d="M11 12C11.5523 12 12 11.5523 12 11C12 10.4477 11.5523 10 11 10C10.4477 10 10 10.4477 10 11C10 11.5523 10.4477 12 11 12Z" fill="#00B261"/>
<path d="M33 12C33.5523 12 34 11.5523 34 11C34 10.4477 33.5523 10 33 10C32.4477 10 32 10.4477 32 11C32 11.5523 32.4477 12 33 12Z" fill="#00B261"/>
<path d="M55 12C55.5523 12 56 11.5523 56 11C56 10.4477 55.5523 10 55 10C54.4477 10 54 10.4477 54 11C54 11.5523 54.4477 12 55 12Z" fill="#00B261"/>
<path d="M77 12C77.5523 12 78 11.5523 78 11C78 10.4477 77.5523 10 77 10C76.4477 10 76 10.4477 76 11C76 11.5523 76.4477 12 77 12Z" fill="#00B261"/>
<path d="M99 12C99.5523 12 100 11.5523 100 11C100 10.4477 99.5523 10 99 10C98.4477 10 98 10.4477 98 11C98 11.5523 98.4477 12 99 12Z" fill="#00B261"/>
<path d="M121 12C121.552 12 122 11.5523 122 11C122 10.4477 121.552 10 121 10C120.448 10 120 10.4477 120 11C120 11.5523 120.448 12 121 12Z" fill="#00B261"/>
<path d="M143 12C143.552 12 144 11.5523 144 11C144 10.4477 143.552 10 143 10C142.448 10 142 10.4477 142 11C142 11.5523 142.448 12 143 12Z" fill="#00B261"/>
<path d="M165 12C165.552 12 166 11.5523 166 11C166 10.4477 165.552 10 165 10C164.448 10 164 10.4477 164 11C164 11.5523 164.448 12 165 12Z" fill="#00B261"/>
<path d="M187 12C187.552 12 188 11.5523 188 11C188 10.4477 187.552 10 187 10C186.448 10 186 10.4477 186 11C186 11.5523 186.448 12 187 12Z" fill="#00B261"/>
<path d="M11 34C11.5523 34 12 33.5523 12 33C12 32.4477 11.5523 32 11 32C10.4477 32 10 32.4477 10 33C10 33.5523 10.4477 34 11 34Z" fill="#00B261"/>
<path d="M33 34C33.5523 34 34 33.5523 34 33C34 32.4477 33.5523 32 33 32C32.4477 32 32 32.4477 32 33C32 33.5523 32.4477 34 33 34Z" fill="#00B261"/>
<path d="M55 34C55.5523 34 56 33.5523 56 33C56 32.4477 55.5523 32 55 32C54.4477 32 54 32.4477 54 33C54 33.5523 54.4477 34 55 34Z" fill="#00B261"/>
<path d="M77 34C77.5523 34 78 33.5523 78 33C78 32.4477 77.5523 32 77 32C76.4477 32 76 32.4477 76 33C76 33.5523 76.4477 34 77 34Z" fill="#00B261"/>
<path d="M99 34C99.5523 34 100 33.5523 100 33C100 32.4477 99.5523 32 99 32C98.4477 32 98 32.4477 98 33C98 33.5523 98.4477 34 99 34Z" fill="#00B261"/>
<path d="M121 34C121.552 34 122 33.5523 122 33C122 32.4477 121.552 32 121 32C120.448 32 120 32.4477 120 33C120 33.5523 120.448 34 121 34Z" fill="#00B261"/>
<path d="M143 34C143.552 34 144 33.5523 144 33C144 32.4477 143.552 32 143 32C142.448 32 142 32.4477 142 33C142 33.5523 142.448 34 143 34Z" fill="#00B261"/>
<path d="M165 34C165.552 34 166 33.5523 166 33C166 32.4477 165.552 32 165 32C164.448 32 164 32.4477 164 33C164 33.5523 164.448 34 165 34Z" fill="#00B261"/>
<path d="M187 34C187.552 34 188 33.5523 188 33C188 32.4477 187.552 32 187 32C186.448 32 186 32.4477 186 33C186 33.5523 186.448 34 187 34Z" fill="#00B261"/>
<path d="M11 56C11.5523 56 12 55.5523 12 55C12 54.4477 11.5523 54 11 54C10.4477 54 10 54.4477 10 55C10 55.5523 10.4477 56 11 56Z" fill="#00B261"/>
<path d="M33 56C33.5523 56 34 55.5523 34 55C34 54.4477 33.5523 54 33 54C32.4477 54 32 54.4477 32 55C32 55.5523 32.4477 56 33 56Z" fill="#00B261"/>
<path d="M55 56C55.5523 56 56 55.5523 56 55C56 54.4477 55.5523 54 55 54C54.4477 54 54 54.4477 54 55C54 55.5523 54.4477 56 55 56Z" fill="#00B261"/>
<path d="M77 56C77.5523 56 78 55.5523 78 55C78 54.4477 77.5523 54 77 54C76.4477 54 76 54.4477 76 55C76 55.5523 76.4477 56 77 56Z" fill="#00B261"/>
<path d="M99 56C99.5523 56 100 55.5523 100 55C100 54.4477 99.5523 54 99 54C98.4477 54 98 54.4477 98 55C98 55.5523 98.4477 56 99 56Z" fill="#00B261"/>
<path d="M121 56C121.552 56 122 55.5523 122 55C122 54.4477 121.552 54 121 54C120.448 54 120 54.4477 120 55C120 55.5523 120.448 56 121 56Z" fill="#00B261"/>
<path d="M143 56C143.552 56 144 55.5523 144 55C144 54.4477 143.552 54 143 54C142.448 54 142 54.4477 142 55C142 55.5523 142.448 56 143 56Z" fill="#00B261"/>
<path d="M165 56C165.552 56 166 55.5523 166 55C166 54.4477 165.552 54 165 54C164.448 54 164 54.4477 164 55C164 55.5523 164.448 56 165 56Z" fill="#00B261"/>
<path d="M187 56C187.552 56 188 55.5523 188 55C188 54.4477 187.552 54 187 54C186.448 54 186 54.4477 186 55C186 55.5523 186.448 56 187 56Z" fill="#00B261"/>
<path d="M11 78C11.5523 78 12 77.5523 12 77C12 76.4477 11.5523 76 11 76C10.4477 76 10 76.4477 10 77C10 77.5523 10.4477 78 11 78Z" fill="#00B261"/>
<path d="M33 78C33.5523 78 34 77.5523 34 77C34 76.4477 33.5523 76 33 76C32.4477 76 32 76.4477 32 77C32 77.5523 32.4477 78 33 78Z" fill="#00B261"/>
<path d="M55 78C55.5523 78 56 77.5523 56 77C56 76.4477 55.5523 76 55 76C54.4477 76 54 76.4477 54 77C54 77.5523 54.4477 78 55 78Z" fill="#00B261"/>
<path d="M77 78C77.5523 78 78 77.5523 78 77C78 76.4477 77.5523 76 77 76C76.4477 76 76 76.4477 76 77C76 77.5523 76.4477 78 77 78Z" fill="#00B261"/>
<path d="M99 78C99.5523 78 100 77.5523 100 77C100 76.4477 99.5523 76 99 76C98.4477 76 98 76.4477 98 77C98 77.5523 98.4477 78 99 78Z" fill="#00B261"/>
<path d="M121 78C121.552 78 122 77.5523 122 77C122 76.4477 121.552 76 121 76C120.448 76 120 76.4477 120 77C120 77.5523 120.448 78 121 78Z" fill="#00B261"/>
<path d="M143 78C143.552 78 144 77.5523 144 77C144 76.4477 143.552 76 143 76C142.448 76 142 76.4477 142 77C142 77.5523 142.448 78 143 78Z" fill="#00B261"/>
<path d="M165 78C165.552 78 166 77.5523 166 77C166 76.4477 165.552 76 165 76C164.448 76 164 76.4477 164 77C164 77.5523 164.448 78 165 78Z" fill="#00B261"/>
<path d="M187 78C187.552 78 188 77.5523 188 77C188 76.4477 187.552 76 187 76C186.448 76 186 76.4477 186 77C186 77.5523 186.448 78 187 78Z" fill="#00B261"/>
<path d="M11 100C11.5523 100 12 99.5523 12 99C12 98.4477 11.5523 98 11 98C10.4477 98 10 98.4477 10 99C10 99.5523 10.4477 100 11 100Z" fill="#00B261"/>
<path d="M33 100C33.5523 100 34 99.5523 34 99C34 98.4477 33.5523 98 33 98C32.4477 98 32 98.4477 32 99C32 99.5523 32.4477 100 33 100Z" fill="#00B261"/>
<path d="M55 100C55.5523 100 56 99.5523 56 99C56 98.4477 55.5523 98 55 98C54.4477 98 54 98.4477 54 99C54 99.5523 54.4477 100 55 100Z" fill="#00B261"/>
<path d="M77 100C77.5523 100 78 99.5523 78 99C78 98.4477 77.5523 98 77 98C76.4477 98 76 98.4477 76 99C76 99.5523 76.4477 100 77 100Z" fill="#00B261"/>
<path d="M99 100C99.5523 100 100 99.5523 100 99C100 98.4477 99.5523 98 99 98C98.4477 98 98 98.4477 98 99C98 99.5523 98.4477 100 99 100Z" fill="#00B261"/>
<path d="M121 100C121.552 100 122 99.5523 122 99C122 98.4477 121.552 98 121 98C120.448 98 120 98.4477 120 99C120 99.5523 120.448 100 121 100Z" fill="#00B261"/>
<path d="M143 100C143.552 100 144 99.5523 144 99C144 98.4477 143.552 98 143 98C142.448 98 142 98.4477 142 99C142 99.5523 142.448 100 143 100Z" fill="#00B261"/>
<path d="M165 100C165.552 100 166 99.5523 166 99C166 98.4477 165.552 98 165 98C164.448 98 164 98.4477 164 99C164 99.5523 164.448 100 165 100Z" fill="#00B261"/>
<path d="M187 100C187.552 100 188 99.5523 188 99C188 98.4477 187.552 98 187 98C186.448 98 186 98.4477 186 99C186 99.5523 186.448 100 187 100Z" fill="#00B261"/>
<path d="M11 122C11.5523 122 12 121.552 12 121C12 120.448 11.5523 120 11 120C10.4477 120 10 120.448 10 121C10 121.552 10.4477 122 11 122Z" fill="#00B261"/>
<path d="M33 122C33.5523 122 34 121.552 34 121C34 120.448 33.5523 120 33 120C32.4477 120 32 120.448 32 121C32 121.552 32.4477 122 33 122Z" fill="#00B261"/>
<path d="M55 122C55.5523 122 56 121.552 56 121C56 120.448 55.5523 120 55 120C54.4477 120 54 120.448 54 121C54 121.552 54.4477 122 55 122Z" fill="#00B261"/>
<path d="M77 122C77.5523 122 78 121.552 78 121C78 120.448 77.5523 120 77 120C76.4477 120 76 120.448 76 121C76 121.552 76.4477 122 77 122Z" fill="#00B261"/>
<path d="M99 122C99.5523 122 100 121.552 100 121C100 120.448 99.5523 120 99 120C98.4477 120 98 120.448 98 121C98 121.552 98.4477 122 99 122Z" fill="#00B261"/>
<path d="M121 122C121.552 122 122 121.552 122 121C122 120.448 121.552 120 121 120C120.448 120 120 120.448 120 121C120 121.552 120.448 122 121 122Z" fill="#00B261"/>
<path d="M143 122C143.552 122 144 121.552 144 121C144 120.448 143.552 120 143 120C142.448 120 142 120.448 142 121C142 121.552 142.448 122 143 122Z" fill="#00B261"/>
<path d="M165 122C165.552 122 166 121.552 166 121C166 120.448 165.552 120 165 120C164.448 120 164 120.448 164 121C164 121.552 164.448 122 165 122Z" fill="#00B261"/>
<path d="M187 122C187.552 122 188 121.552 188 121C188 120.448 187.552 120 187 120C186.448 120 186 120.448 186 121C186 121.552 186.448 122 187 122Z" fill="#00B261"/>
<path d="M11 144C11.5523 144 12 143.552 12 143C12 142.448 11.5523 142 11 142C10.4477 142 10 142.448 10 143C10 143.552 10.4477 144 11 144Z" fill="#00B261"/>
<path d="M33 144C33.5523 144 34 143.552 34 143C34 142.448 33.5523 142 33 142C32.4477 142 32 142.448 32 143C32 143.552 32.4477 144 33 144Z" fill="#00B261"/>
<path d="M55 144C55.5523 144 56 143.552 56 143C56 142.448 55.5523 142 55 142C54.4477 142 54 142.448 54 143C54 143.552 54.4477 144 55 144Z" fill="#00B261"/>
<path d="M77 144C77.5523 144 78 143.552 78 143C78 142.448 77.5523 142 77 142C76.4477 142 76 142.448 76 143C76 143.552 76.4477 144 77 144Z" fill="#00B261"/>
<path d="M99 144C99.5523 144 100 143.552 100 143C100 142.448 99.5523 142 99 142C98.4477 142 98 142.448 98 143C98 143.552 98.4477 144 99 144Z" fill="#00B261"/>
<path d="M121 144C121.552 144 122 143.552 122 143C122 142.448 121.552 142 121 142C120.448 142 120 142.448 120 143C120 143.552 120.448 144 121 144Z" fill="#00B261"/>
<path d="M143 144C143.552 144 144 143.552 144 143C144 142.448 143.552 142 143 142C142.448 142 142 142.448 142 143C142 143.552 142.448 144 143 144Z" fill="#00B261"/>
<path d="M165 144C165.552 144 166 143.552 166 143C166 142.448 165.552 142 165 142C164.448 142 164 142.448 164 143C164 143.552 164.448 144 165 144Z" fill="#00B261"/>
<path d="M187 144C187.552 144 188 143.552 188 143C188 142.448 187.552 142 187 142C186.448 142 186 142.448 186 143C186 143.552 186.448 144 187 144Z" fill="#00B261"/>
<path d="M11 166C11.5523 166 12 165.552 12 165C12 164.448 11.5523 164 11 164C10.4477 164 10 164.448 10 165C10 165.552 10.4477 166 11 166Z" fill="#00B261"/>
<path d="M33 166C33.5523 166 34 165.552 34 165C34 164.448 33.5523 164 33 164C32.4477 164 32 164.448 32 165C32 165.552 32.4477 166 33 166Z" fill="#00B261"/>
<path d="M55 166C55.5523 166 56 165.552 56 165C56 164.448 55.5523 164 55 164C54.4477 164 54 164.448 54 165C54 165.552 54.4477 166 55 166Z" fill="#00B261"/>
<path d="M77 166C77.5523 166 78 165.552 78 165C78 164.448 77.5523 164 77 164C76.4477 164 76 164.448 76 165C76 165.552 76.4477 166 77 166Z" fill="#00B261"/>
<path d="M99 166C99.5523 166 100 165.552 100 165C100 164.448 99.5523 164 99 164C98.4477 164 98 164.448 98 165C98 165.552 98.4477 166 99 166Z" fill="#00B261"/>
<path d="M121 166C121.552 166 122 165.552 122 165C122 164.448 121.552 164 121 164C120.448 164 120 164.448 120 165C120 165.552 120.448 166 121 166Z" fill="#00B261"/>
<path d="M143 166C143.552 166 144 165.552 144 165C144 164.448 143.552 164 143 164C142.448 164 142 164.448 142 165C142 165.552 142.448 166 143 166Z" fill="#00B261"/>
<path d="M165 166C165.552 166 166 165.552 166 165C166 164.448 165.552 164 165 164C164.448 164 164 164.448 164 165C164 165.552 164.448 166 165 166Z" fill="#00B261"/>
<path d="M187 166C187.552 166 188 165.552 188 165C188 164.448 187.552 164 187 164C186.448 164 186 164.448 186 165C186 165.552 186.448 166 187 166Z" fill="#00B261"/>
<path d="M11 188C11.5523 188 12 187.552 12 187C12 186.448 11.5523 186 11 186C10.4477 186 10 186.448 10 187C10 187.552 10.4477 188 11 188Z" fill="#00B261"/>
<path d="M33 188C33.5523 188 34 187.552 34 187C34 186.448 33.5523 186 33 186C32.4477 186 32 186.448 32 187C32 187.552 32.4477 188 33 188Z" fill="#00B261"/>
<path d="M55 188C55.5523 188 56 187.552 56 187C56 186.448 55.5523 186 55 186C54.4477 186 54 186.448 54 187C54 187.552 54.4477 188 55 188Z" fill="#00B261"/>
<path d="M77 188C77.5523 188 78 187.552 78 187C78 186.448 77.5523 186 77 186C76.4477 186 76 186.448 76 187C76 187.552 76.4477 188 77 188Z" fill="#00B261"/>
<path d="M99 188C99.5523 188 100 187.552 100 187C100 186.448 99.5523 186 99 186C98.4477 186 98 186.448 98 187C98 187.552 98.4477 188 99 188Z" fill="#00B261"/>
<path d="M121 188C121.552 188 122 187.552 122 187C122 186.448 121.552 186 121 186C120.448 186 120 186.448 120 187C120 187.552 120.448 188 121 188Z" fill="#00B261"/>
<path d="M143 188C143.552 188 144 187.552 144 187C144 186.448 143.552 186 143 186C142.448 186 142 186.448 142 187C142 187.552 142.448 188 143 188Z" fill="#00B261"/>
<path d="M165 188C165.552 188 166 187.552 166 187C166 186.448 165.552 186 165 186C164.448 186 164 186.448 164 187C164 187.552 164.448 188 165 188Z" fill="#00B261"/>
<path d="M187 188C187.552 188 188 187.552 188 187C188 186.448 187.552 186 187 186C186.448 186 186 186.448 186 187C186 187.552 186.448 188 187 188Z" fill="#00B261"/>
</svg>
